<svg width="30" height="30" fill="none" xmlns="http://www.w3.org/2000/svg"><g clip-path="url(#clip0_27_93)" fill="#FFECD6"><path d="M6.447.087c-1.682.252-3.012.92-4.225 2.133C.974 3.468.294 4.863.066 6.615c-.088.685-.088 16.084 0 16.77.228 1.751.908 3.146 2.156 4.394 1.248 1.248 2.643 1.927 4.395 2.156.685.088 16.084.088 16.77 0 1.751-.229 3.146-.908 4.394-2.156 1.248-1.248 1.928-2.643 2.156-4.395.088-.685.088-16.084 0-16.77-.229-1.751-.908-3.146-2.156-4.394C26.533.972 25.138.292 23.386.064c-.75-.1-16.277-.076-16.94.023zm17.56 2.649c.662.228.809.305 1.354.68.867.597 1.553 1.529 1.898 2.578l.194.597V15c0 8.044-.006 8.425-.112 8.76-.392 1.27-1.072 2.214-2.074 2.894-.433.293-.808.463-1.418.656l-.44.14H6.594l-.597-.193c-1.641-.539-2.79-1.74-3.334-3.498-.106-.334-.112-.715-.112-8.76 0-8.044.006-8.425.112-8.76.416-1.335 1.142-2.308 2.226-2.988.457-.287 1.242-.591 1.729-.673.146-.024 4.002-.041 8.56-.036l8.291.006.54.188z"/><path d="M22.736 5.062c-.416.094-.656.223-.938.51-.38.393-.498.703-.498 1.312 0 .458.024.569.159.82.322.61.867.968 1.546 1.014.498.03.762-.04 1.178-.322 1.166-.785 1.031-2.572-.234-3.176-.434-.205-.78-.252-1.213-.158zM14.04 7.564c-2.83.393-5.244 2.361-6.123 5.01-.298.902-.38 1.424-.38 2.425 0 1.002.082 1.524.38 2.432.71 2.121 2.538 3.944 4.67 4.658.891.293 1.418.375 2.415.375.996 0 1.523-.082 2.414-.375 2.132-.714 3.96-2.537 4.67-4.658.298-.908.38-1.43.38-2.432 0-1.312-.252-2.384-.82-3.457a7.554 7.554 0 00-5.209-3.896c-.563-.117-1.84-.164-2.397-.082zm2.467 2.684c.627.205.797.287 1.278.609.984.662 1.646 1.582 2.027 2.795.117.38.14.562.14 1.348 0 .966-.07 1.324-.415 2.091-.434.985-1.46 2.01-2.45 2.45-.761.34-1.119.41-2.085.41-.967 0-1.325-.07-2.087-.41-.99-.44-2.015-1.465-2.449-2.45-.345-.767-.416-1.125-.416-2.092 0-.785.024-.966.14-1.347.2-.633.376-1.002.71-1.488a4.92 4.92 0 012.724-1.957c.58-.17.668-.182 1.553-.159.697.018.856.041 1.33.2z"/></g><defs><clipPath id="clip0_27_93"><path fill="#fff" d="M0 0h30v30H0z"/></clipPath></defs></svg>