<svg width="30" height="31" fill="none" xmlns="http://www.w3.org/2000/svg"><path d="M12.883.806a16.389 16.389 0 00-6.33 2.491C5.296 4.132 3.5 5.917 2.666 7.14c-3.018 4.489-3.394 10.14-1.01 14.994l.435.881-1.057 3.82C.458 28.937-.012 30.664 0 30.676c.024.012 1.797-.447 3.958-1.01l3.934-1.035.68.341c2.29 1.14 5.297 1.669 7.88 1.399 8.068-.87 13.928-7.592 13.529-15.524C29.64 7.974 24.884 2.404 18.108.912 16.934.653 14.116.594 12.883.806zm5.12 2.632c1.256.306 2.853 1.01 3.934 1.716 1.08.705 2.83 2.456 3.5 3.466 3.322 5.124 2.57 11.74-1.798 15.84-3.264 3.056-8.067 4.184-12.213 2.88-.869-.27-2.642-1.07-2.97-1.34-.083-.082-.917.082-2.443.482-1.269.329-2.337.588-2.36.552-.024-.023.222-.999.54-2.162.328-1.175.587-2.186.587-2.256 0-.07-.235-.54-.529-1.046-1.057-1.81-1.585-3.83-1.585-6.005 0-1.48.13-2.385.54-3.69 1.41-4.5 5.144-7.79 9.77-8.613 1.245-.223 3.782-.13 5.027.176z" fill="#FFECD6"/><path d="M9.066 8.844c-.47.282-1.198 1.351-1.41 2.068-.633 2.103.412 4.383 3.477 7.638 1.68 1.763 3.37 2.844 5.778 3.643 1.949.658 3.1.576 4.427-.306.904-.61 1.21-1.163 1.221-2.209.012-.705-.012-.776-.282-.905-1.021-.493-2.924-1.34-3.182-1.398-.27-.07-.388.023-1.092.881-.435.529-.87.987-.963 1.023-.458.176-2.713-1.164-3.84-2.257-.787-.775-1.844-2.232-1.844-2.55 0-.117.27-.564.587-.987.317-.423.587-.893.587-1.034 0-.34-1.233-3.337-1.491-3.62-.27-.293-1.491-.293-1.973.013z" fill="#FFECD6"/></svg>