<svg width="9" height="10" fill="none" xmlns="http://www.w3.org/2000/svg"><path d="M7.28 5.144c0 .64.043 1.173.128 1.6.086.427.187.768.304 1.024.128.31.278.55.448.72l-2.032.64a1.756 1.756 0 01-.32-.4 4.232 4.232 0 01-.256-.496 4.734 4.734 0 01-.192-.704c-.18.501-.448.89-.8 1.168-.352.267-.816.4-1.392.4-.522 0-.98-.096-1.376-.288a2.684 2.684 0 01-.96-.8 3.724 3.724 0 01-.576-1.264A7.023 7.023 0 01.08 5.112c0-.608.096-1.173.288-1.696.203-.523.48-.97.832-1.344a3.688 3.688 0 011.264-.896 4.05 4.05 0 011.632-.32c.331 0 .683.027 1.056.08.374.043.715.096 1.024.16.31.053.566.107.768.16.214.043.326.064.336.064v3.824zM3.584 7.24c.16 0 .31-.07.448-.208.15-.139.278-.325.384-.56.107-.235.187-.501.24-.8.064-.31.096-.635.096-.976V2.84a1.381 1.381 0 00-.32-.08 1.41 1.41 0 00-.336-.048c-.256 0-.469.059-.64.176-.17.107-.309.261-.416.464a2.388 2.388 0 00-.208.704 5.9 5.9 0 00-.064.896c0 .299.006.587.016.864.011.267.043.507.096.72.064.213.15.384.256.512a.551.551 0 00.448.192z" fill="#871212"/></svg>