<svg width="50" height="50" fill="none" xmlns="http://www.w3.org/2000/svg"><path d="M21.484.293a27.268 27.268 0 00-10.527 4.14C8.867 5.82 5.879 8.79 4.492 10.82c-5.02 7.461-5.644 16.856-1.68 24.922l.723 1.465-1.758 6.348C.82 47.05.04 49.922.058 49.94c.04.02 2.989-.742 6.582-1.68l6.544-1.718 1.132.566c3.809 1.895 8.809 2.774 13.106 2.325 13.418-1.446 23.164-12.618 22.5-25.801C49.355 12.207 41.445 2.949 30.176.469c-1.953-.43-6.641-.528-8.692-.176zM30 4.668c2.09.508 4.746 1.68 6.543 2.852 1.797 1.171 4.707 4.082 5.82 5.761 5.528 8.516 4.278 19.512-2.988 26.328-5.43 5.078-13.418 6.953-20.313 4.785-1.445-.449-4.394-1.777-4.941-2.226-.137-.137-1.524.137-4.063.8-2.109.548-3.886.977-3.925.919-.04-.04.37-1.66.898-3.594.547-1.953.977-3.633.977-3.75 0-.117-.39-.898-.88-1.738-1.757-3.008-2.636-6.367-2.636-9.98 0-2.462.215-3.966.898-6.134 2.344-7.48 8.555-12.949 16.25-14.316 2.07-.371 6.29-.215 8.36.293z" fill="#871212" fill-opacity=".91"/><path d="M15.137 13.652c-.782.47-1.992 2.247-2.344 3.438-1.055 3.496.684 7.285 5.781 12.695 2.793 2.93 5.606 4.727 9.61 6.055 3.242 1.094 5.156.957 7.363-.508 1.504-1.016 2.012-1.934 2.031-3.672.02-1.172-.02-1.289-.469-1.504-1.699-.82-4.863-2.226-5.293-2.324-.449-.117-.644.04-1.816 1.465-.723.879-1.445 1.64-1.602 1.7-.761.292-4.511-1.934-6.386-3.75-1.309-1.29-3.067-3.712-3.067-4.24 0-.195.45-.937.977-1.64.527-.703.976-1.484.976-1.719 0-.566-2.05-5.546-2.48-6.015-.45-.488-2.48-.488-3.281.02z" fill="#871212" fill-opacity=".91"/></svg>