<svg width="50" height="50" fill="none" xmlns="http://www.w3.org/2000/svg"><g clip-path="url(#clip0_28_14)" fill="#871212" fill-opacity=".91"><path d="M10.742.146c-2.803.42-5.02 1.534-7.04 3.555C1.621 5.781.487 8.105.106 11.025c-.146 1.143-.146 26.807 0 27.95.381 2.92 1.514 5.244 3.594 7.324s4.404 3.213 7.324 3.594c1.143.146 26.807.146 27.95 0 2.92-.381 5.244-1.514 7.324-3.594s3.213-4.404 3.594-7.324c.146-1.143.146-26.807 0-27.95-.381-2.92-1.514-5.244-3.594-7.324S41.895.488 38.975.107c-1.25-.166-27.13-.127-28.233.04zM40.01 4.561c1.103.38 1.347.507 2.256 1.132 1.445.996 2.587 2.55 3.164 4.297l.322.996V25c0 13.408-.01 14.043-.186 14.6-.654 2.119-1.787 3.691-3.457 4.824-.722.488-1.347.771-2.363 1.094l-.732.234H10.986l-.996-.322c-2.734-.899-4.648-2.9-5.556-5.83-.176-.557-.186-1.192-.186-14.6s.01-14.043.186-14.6c.693-2.226 1.904-3.847 3.71-4.98.762-.479 2.07-.986 2.881-1.123.245-.04 6.67-.068 14.268-.059l13.818.01.899.313z"/><path d="M37.89 8.438c-.693.156-1.093.37-1.562.85-.635.653-.83 1.171-.83 2.187 0 .761.04.947.264 1.367.537 1.015 1.445 1.611 2.578 1.69.83.048 1.27-.07 1.963-.538 1.943-1.308 1.719-4.287-.39-5.293-.723-.342-1.3-.42-2.022-.263zm-14.492 4.169c-4.716.655-8.74 3.936-10.205 8.35-.498 1.504-.634 2.373-.634 4.043s.136 2.54.634 4.053c1.182 3.535 4.229 6.572 7.784 7.763 1.484.489 2.363.625 4.023.625 1.66 0 2.54-.136 4.023-.625 3.555-1.191 6.602-4.228 7.784-7.763.498-1.514.634-2.383.634-4.053 0-2.188-.42-3.975-1.367-5.762-1.806-3.388-4.912-5.722-8.681-6.494-.938-.195-3.067-.273-3.995-.137zm4.112 4.473c1.045.342 1.328.479 2.129 1.016 1.64 1.103 2.744 2.636 3.379 4.658.195.635.234.937.234 2.246 0 1.611-.117 2.207-.693 3.486-.723 1.641-2.432 3.35-4.082 4.082-1.27.567-1.866.684-3.477.684-1.611 0-2.207-.117-3.477-.684-1.65-.732-3.359-2.441-4.082-4.082-.576-1.279-.693-1.875-.693-3.486 0-1.309.04-1.611.234-2.246.332-1.055.625-1.67 1.182-2.48 1.104-1.602 2.646-2.706 4.541-3.262.967-.284 1.113-.303 2.588-.264 1.162.03 1.426.068 2.217.332z"/></g><defs><clipPath id="clip0_28_14"><path fill="#fff" d="M0 0h50v50H0z"/></clipPath></defs></svg>